<svg width="200" height="200" viewBox="0 0 200 200" fill="none" xmlns="http://www.w3.org/2000/svg">
<rect width="200" height="200" fill="white"/>
<path d="M110.165 102.412H113.897V92.4234H115.715V89.0229H113.897V88.3853C113.897 87.5602 113.728 86.785 113.391 86.0599C113.045 85.3348 112.575 84.7056 111.983 84.1721C111.382 83.6304 110.685 83.2053 109.892 82.8969C109.099 82.5802 108.251 82.4219 107.349 82.4219H102.963V82.8817C104.473 83.5456 105.571 84.3258 106.768 85.9635C107.637 85.9607 108.344 85.974 108.47 86.0224C108.807 86.1474 109.103 86.3266 109.359 86.56C109.605 86.785 109.801 87.0559 109.946 87.3726C110.092 87.681 110.165 88.0186 110.165 88.3853V89.0229H108.283C108.631 90.1606 108.809 91.2215 108.809 92.4234H110.165V102.412Z" fill="black"/>
<path d="M99.2116 87.875C99.517 88.4683 99.7604 89.0984 99.9415 89.7651C99.9612 89.834 99.9801 89.9031 99.9982 89.9725H95.779C95.6844 89.7607 95.5793 89.5571 95.4635 89.3616C96.5114 88.0734 97.9238 87.6857 99.2116 87.875Z" fill="black"/>
<path d="M100.001 94.856C99.9823 94.9302 99.9624 95.0042 99.9415 95.0779C99.7562 95.7527 99.5057 96.395 99.1902 97.0047C97.8471 97.198 96.4247 96.7643 95.391 95.603C95.5373 95.3675 95.668 95.1204 95.7829 94.8619L100.001 94.856Z" fill="black"/>
<path d="M90.3067 102.413C91.227 102.413 92.11 102.296 92.9559 102.064C93.2487 101.981 93.5349 101.887 93.8146 101.781C92.0594 100.819 90.9839 99.784 90.0687 98.4106H88.3128V86.4185H90.2916C91.3596 84.8356 92.632 83.8212 93.9185 83.0947C93.7876 83.0441 93.6592 82.9975 93.5302 82.9538C93.3282 82.8886 93.1005 82.8207 92.9559 82.7791C92.11 82.5374 91.227 82.4165 90.3067 82.4165H84.2832V102.413H90.3067Z" fill="black"/>
<path d="M100.134 94.3234C100.526 92.8486 100.21 90.5064 100.134 90.5064L94.7954 90.5064C94.2736 91.6713 94.1828 93.2389 94.6234 94.3234H100.134Z" fill="black"/>
<path d="M102.274 89.1329C101.967 88.7325 101.618 88.3969 101.228 88.126C100.849 87.8552 100.435 87.6491 99.986 87.5078C99.5367 87.3664 99.0755 87.2958 98.6025 87.2958C97.9404 87.2958 97.3136 87.4312 96.7224 87.7021C96.143 87.9729 95.6345 88.3556 95.197 88.8503C94.7713 89.3331 94.4343 89.9101 94.186 90.5814C93.9377 91.2526 93.8135 91.9945 93.8135 92.8071C93.8135 93.4665 93.9377 94.0848 94.186 94.6618C94.4343 95.2389 94.7713 95.7453 95.197 96.181C95.6345 96.6167 96.143 96.9582 96.7224 97.2055C97.3136 97.4528 97.9404 97.5765 98.6025 97.5765C99.0755 97.5765 99.5308 97.5117 99.9683 97.3822C100.406 97.2526 100.814 97.0701 101.192 96.8346C101.582 96.5873 101.925 96.2928 102.221 95.9513C102.295 95.866 102.366 95.7785 102.433 95.689V101.635C101.945 101.844 101.437 102.011 100.908 102.134C100.163 102.322 99.3948 102.417 98.6025 102.417C97.2663 102.417 96.007 102.169 94.8245 101.675C93.6539 101.168 92.6252 100.479 91.7383 99.6079C90.8633 98.7364 90.1715 97.7178 89.6631 96.5519C89.1546 95.3861 88.9004 94.1378 88.9004 92.8071C88.9004 91.3586 89.1546 90.0043 89.6631 88.7443C90.1715 87.4842 90.8633 86.389 91.7383 85.4587C92.6252 84.5166 93.6539 83.7747 94.8245 83.233C96.007 82.6913 97.2663 82.4204 98.6025 82.4204C99.3948 82.4204 100.169 82.5205 100.926 82.7207C101.391 82.8417 101.84 82.9971 102.274 83.1868L102.43 83.2806V89.4221L102.274 89.1329Z" fill="black"/>
<path d="M102.965 101.424C109.33 97.9566 109.271 90.4003 106.46 86.5098L102.965 86.5098V87.1142V89.5316V90.2055V90.3245V101.424Z" fill="black"/>
<path d="M102.964 85.9797C104.162 85.9797 104.897 85.9797 106.109 85.9797C104.964 84.478 103.88 83.8838 102.964 83.4651L102.964 83.5893V83.9944V84.1072V84.1272V85.9797Z" fill="black"/>
<path d="M80.155 114.583V106.883H83.4C84.2213 106.883 84.9437 107.045 85.567 107.367C86.1977 107.69 86.6853 108.141 87.03 108.72C87.382 109.3 87.558 109.971 87.558 110.733C87.558 111.496 87.382 112.167 87.03 112.746C86.6853 113.326 86.1977 113.777 85.567 114.099C84.9437 114.422 84.2213 114.583 83.4 114.583H80.155ZM81.255 113.626H83.334C83.972 113.626 84.522 113.505 84.984 113.263C85.4533 113.021 85.8163 112.684 86.073 112.251C86.3297 111.811 86.458 111.305 86.458 110.733C86.458 110.154 86.3297 109.648 86.073 109.215C85.8163 108.783 85.4533 108.445 84.984 108.203C84.522 107.961 83.972 107.84 83.334 107.84H81.255V113.626ZM89.6939 110.205H93.6539V111.14H89.6939V110.205ZM89.7929 113.626H94.2809V114.583H88.6929V106.883H94.1269V107.84H89.7929V113.626ZM98.9443 114.671C98.3576 114.671 97.815 114.576 97.3163 114.385C96.825 114.187 96.396 113.912 96.0293 113.56C95.67 113.201 95.3876 112.783 95.1823 112.306C94.977 111.83 94.8743 111.305 94.8743 110.733C94.8743 110.161 94.977 109.637 95.1823 109.16C95.3876 108.684 95.6736 108.269 96.0403 107.917C96.407 107.558 96.836 107.283 97.3273 107.092C97.826 106.894 98.3686 106.795 98.9553 106.795C99.5493 106.795 100.096 106.898 100.594 107.103C101.1 107.301 101.529 107.598 101.881 107.994L101.166 108.687C100.873 108.379 100.543 108.152 100.176 108.005C99.8096 107.851 99.4173 107.774 98.9993 107.774C98.5666 107.774 98.1633 107.848 97.7893 107.994C97.4226 108.141 97.1036 108.346 96.8323 108.61C96.561 108.874 96.3483 109.19 96.1943 109.556C96.0476 109.916 95.9743 110.308 95.9743 110.733C95.9743 111.159 96.0476 111.555 96.1943 111.921C96.3483 112.281 96.561 112.592 96.8323 112.856C97.1036 113.12 97.4226 113.326 97.7893 113.472C98.1633 113.619 98.5666 113.692 98.9993 113.692C99.4173 113.692 99.8096 113.619 100.176 113.472C100.543 113.318 100.873 113.084 101.166 112.768L101.881 113.461C101.529 113.857 101.1 114.158 100.594 114.363C100.096 114.569 99.5456 114.671 98.9443 114.671ZM102.901 114.583V106.883H104.001V114.583H102.901ZM106.746 110.524H110.717V111.47H106.746V110.524ZM106.856 114.583H105.756V106.883H111.19V107.84H106.856V114.583ZM115.578 114.671C114.992 114.671 114.445 114.572 113.939 114.374C113.441 114.176 113.008 113.901 112.641 113.549C112.275 113.19 111.989 112.772 111.783 112.295C111.578 111.819 111.475 111.298 111.475 110.733C111.475 110.169 111.578 109.648 111.783 109.171C111.989 108.695 112.275 108.28 112.641 107.928C113.008 107.569 113.441 107.29 113.939 107.092C114.438 106.894 114.984 106.795 115.578 106.795C116.165 106.795 116.704 106.894 117.195 107.092C117.694 107.283 118.127 107.558 118.493 107.917C118.867 108.269 119.153 108.684 119.351 109.16C119.557 109.637 119.659 110.161 119.659 110.733C119.659 111.305 119.557 111.83 119.351 112.306C119.153 112.783 118.867 113.201 118.493 113.56C118.127 113.912 117.694 114.187 117.195 114.385C116.704 114.576 116.165 114.671 115.578 114.671ZM115.578 113.692C116.004 113.692 116.396 113.619 116.755 113.472C117.122 113.326 117.437 113.12 117.701 112.856C117.973 112.585 118.182 112.27 118.328 111.91C118.482 111.551 118.559 111.159 118.559 110.733C118.559 110.308 118.482 109.916 118.328 109.556C118.182 109.197 117.973 108.885 117.701 108.621C117.437 108.35 117.122 108.141 116.755 107.994C116.396 107.848 116.004 107.774 115.578 107.774C115.146 107.774 114.746 107.848 114.379 107.994C114.02 108.141 113.705 108.35 113.433 108.621C113.162 108.885 112.949 109.197 112.795 109.556C112.649 109.916 112.575 110.308 112.575 110.733C112.575 111.159 112.649 111.551 112.795 111.91C112.949 112.27 113.162 112.585 113.433 112.856C113.705 113.12 114.02 113.326 114.379 113.472C114.746 113.619 115.146 113.692 115.578 113.692Z" fill="black"/>
</svg>
